HIERARCHY
ROOT Hips
{
	OFFSET 0.000000 83.214638 0.000000
	CHANNELS 6 Xposition Yposition Zposition Xrotation Yrotation Zrotation
	JOINT Pelvis
	{
		OFFSET 0.000000 0.000000 0.000000
		CHANNELS 3 Xrotation Yrotation Zrotation
		JOINT LeftUpLeg
		{
			OFFSET 8.479700 -4.795502 -0.379100
			CHANNELS 3 Xrotation Yrotation Zrotation
			JOINT LeftLeg
			{
				OFFSET 0.024144 -32.555107 0.112900
				CHANNELS 3 Xrotation Yrotation Zrotation
				JOINT LeftFoot
				{
					OFFSET -0.024144 -32.638630 -3.012600
					CHANNELS 3 Xrotation Yrotation Zrotation
					JOINT LeftToeBase
					{
						OFFSET 0.970200 -13.225400 11.864200
						CHANNELS 3 Xrotation Yrotation Zrotation
						End Site
						{
							OFFSET 0.000000 12.319262 0.000000
						}
					}
					JOINT LFootTongue
					{
						OFFSET 1.142400 -1.059800 6.665200
						CHANNELS 3 Xrotation Yrotation Zrotation
						End Site
						{
							OFFSET 0.000000 12.319262 0.000000
						}
					}
				}
				JOINT LeftPantLeg
				{
					OFFSET 0.918482 -16.533964 -2.284700
					CHANNELS 3 Xrotation Yrotation Zrotation
					End Site
					{
						OFFSET 0.350399 24.744368 0.000000
					}
				}
			}
		}
		JOINT RightUpLeg
		{
			OFFSET -8.479700 -4.795502 -0.379100
			CHANNELS 3 Xrotation Yrotation Zrotation
			JOINT RightLeg
			{
				OFFSET -0.023144 -32.555092 0.112900
				CHANNELS 3 Xrotation Yrotation Zrotation
				JOINT RightFoot
				{
					OFFSET 0.023144 -32.638641 -3.012700
					CHANNELS 3 Xrotation Yrotation Zrotation
					JOINT RightToeBase
					{
						OFFSET -0.970200 -13.225400 11.864200
						CHANNELS 3 Xrotation Yrotation Zrotation
						End Site
						{
							OFFSET 0.000000 12.319244 0.000000
						}
					}
					JOINT RFootTongue
					{
						OFFSET -1.142200 -1.059800 6.665200
						CHANNELS 3 Xrotation Yrotation Zrotation
						End Site
						{
							OFFSET 0.000000 12.319243 0.000000
						}
					}
				}
				JOINT RightPantLeg
				{
					OFFSET -0.919482 -16.533978 -2.284800
					CHANNELS 3 Xrotation Yrotation Zrotation
					End Site
					{
						OFFSET -0.350400 24.744419 0.000000
					}
				}
			}
		}
	}
	JOINT Spine
	{
		OFFSET 0.000000 7.722000 1.166200
		CHANNELS 3 Xrotation Yrotation Zrotation
		JOINT Spine1
		{
			OFFSET 0.000000 12.024101 0.248800
			CHANNELS 3 Xrotation Yrotation Zrotation
			JOINT Spine2
			{
				OFFSET 0.000000 11.502998 -0.491200
				CHANNELS 3 Xrotation Yrotation Zrotation
				JOINT Neck
				{
					OFFSET 0.000000 18.430702 -3.123100
					CHANNELS 3 Xrotation Yrotation Zrotation
					JOINT Head
					{
						OFFSET 0.000000 9.051102 1.034000
						CHANNELS 3 Xrotation Yrotation Zrotation
						JOINT HairB
						{
							OFFSET 0.208400 24.786102 24.822300
							CHANNELS 3 Xrotation Yrotation Zrotation
							End Site
							{
								OFFSET 0.000000 32.263779 0.000000
							}
						}
						JOINT HairA
						{
							OFFSET -7.081100 24.428299 23.196600
							CHANNELS 3 Xrotation Yrotation Zrotation
							End Site
							{
								OFFSET 0.000000 32.263779 0.000000
							}
						}
						JOINT Hat
						{
							OFFSET 16.728800 15.048294 -15.439601
							CHANNELS 3 Xrotation Yrotation Zrotation
							End Site
							{
								OFFSET 0.000000 32.263779 0.000000
							}
						}
					}
				}
				JOINT LeftShoulder
				{
					OFFSET 6.197800 13.665199 -4.064700
					CHANNELS 3 Xrotation Yrotation Zrotation
					JOINT LeftArm
					{
						OFFSET 7.778100 -0.187103 -1.709300
						CHANNELS 3 Xrotation Yrotation Zrotation
						JOINT LeftForeArm
						{
							OFFSET 22.049376 0.000000 0.000000
							CHANNELS 3 Xrotation Yrotation Zrotation
							JOINT LeftHand
							{
								OFFSET 23.009392 0.000000 0.000000
								CHANNELS 3 Xrotation Yrotation Zrotation
								JOINT LeftHandThumb1
								{
									OFFSET 3.507191 -2.063065 3.133727
									CHANNELS 3 Xrotation Yrotation Zrotation
									JOINT LeftHandThumb2
									{
										OFFSET 3.101337 -1.790558 1.790558
										CHANNELS 3 Xrotation Yrotation Zrotation
										JOINT LeftHandThumb3
										{
											OFFSET 3.058640 -1.765907 1.765906
											CHANNELS 3 Xrotation Yrotation Zrotation
											End Site
											{
												OFFSET -0.415260 3.926476 -0.049563
											}
										}
									}
								}
								JOINT LeftHandIndex1
								{
									OFFSET 11.334419 -0.901459 3.706815
									CHANNELS 3 Xrotation Yrotation Zrotation
									JOINT LeftHandIndex2
									{
										OFFSET 3.283112 0.000000 0.000000
										CHANNELS 3 Xrotation Yrotation Zrotation
										JOINT LeftHandIndex3
										{
											OFFSET 3.323853 0.000000 0.000000
											CHANNELS 3 Xrotation Yrotation Zrotation
											End Site
											{
												OFFSET -1.135597 3.097809 0.402452
											}
										}
									}
								}
								JOINT LeftHandMiddle1
								{
									OFFSET 11.335861 0.000000 0.000000
									CHANNELS 3 Xrotation Yrotation Zrotation
									JOINT LeftHandMiddle2
									{
										OFFSET 3.410492 0.000000 0.000000
										CHANNELS 3 Xrotation Yrotation Zrotation
										JOINT LeftHandMiddle3
										{
											OFFSET 3.312172 0.000000 0.000000
											CHANNELS 3 Xrotation Yrotation Zrotation
											End Site
											{
												OFFSET -1.150200 3.080154 0.400270
											}
										}
									}
								}
								JOINT LeftHandRing1
								{
									OFFSET 11.514786 -0.013176 -3.003090
									CHANNELS 3 Xrotation Yrotation Zrotation
									JOINT LeftHandRing2
									{
										OFFSET 3.053307 0.000000 0.000000
										CHANNELS 3 Xrotation Yrotation Zrotation
										JOINT LeftHandRing3
										{
											OFFSET 3.295807 0.000000 0.000000
											CHANNELS 3 Xrotation Yrotation Zrotation
											End Site
											{
												OFFSET -1.281006 3.013344 0.375733
											}
										}
									}
								}
								JOINT LeftHandPinky1
								{
									OFFSET 10.518692 -0.960396 -5.730441
									CHANNELS 3 Xrotation Yrotation Zrotation
									JOINT LeftHandPinky2
									{
										OFFSET 2.861649 0.000000 0.000000
										CHANNELS 3 Xrotation Yrotation Zrotation
										JOINT LeftHandPinky3
										{
											OFFSET 2.863380 0.000000 0.000000
											CHANNELS 3 Xrotation Yrotation Zrotation
											End Site
											{
												OFFSET -0.843597 2.711159 0.369971
											}
										}
									}
								}
							}
							JOINT LSleeve
							{
								OFFSET 6.676277 -0.344902 -1.011730
								CHANNELS 3 Xrotation Yrotation Zrotation
								End Site
								{
									OFFSET 0.000000 14.885353 0.000000
								}
							}
						}
					}
				}
				JOINT RightShoulder
				{
					OFFSET -6.197800 13.665199 -4.064700
					CHANNELS 3 Xrotation Yrotation Zrotation
					JOINT RightArm
					{
						OFFSET -7.778100 -0.187103 -1.709300
						CHANNELS 3 Xrotation Yrotation Zrotation
						JOINT RightForeArm
						{
							OFFSET -22.049376 0.000000 0.000000
							CHANNELS 3 Xrotation Yrotation Zrotation
							JOINT RightHand
							{
								OFFSET -23.009392 0.000000 0.000000
								CHANNELS 3 Xrotation Yrotation Zrotation
								JOINT RightHandThumb1
								{
									OFFSET -3.507191 -2.063065 3.133727
									CHANNELS 3 Xrotation Yrotation Zrotation
									JOINT RightHandThumb2
									{
										OFFSET -3.101337 -1.790558 1.790558
										CHANNELS 3 Xrotation Yrotation Zrotation
										JOINT RightHandThumb3
										{
											OFFSET -3.058640 -1.765907 1.765906
											CHANNELS 3 Xrotation Yrotation Zrotation
											End Site
											{
												OFFSET 0.415260 3.926476 -0.049563
											}
										}
									}
								}
								JOINT RightHandIndex1
								{
									OFFSET -11.334419 -0.901459 3.706815
									CHANNELS 3 Xrotation Yrotation Zrotation
									JOINT RightHandIndex2
									{
										OFFSET -3.283112 0.000000 0.000000
										CHANNELS 3 Xrotation Yrotation Zrotation
										JOINT RightHandIndex3
										{
											OFFSET -3.323853 0.000000 0.000000
											CHANNELS 3 Xrotation Yrotation Zrotation
											End Site
											{
												OFFSET 1.135597 3.097809 0.402452
											}
										}
									}
								}
								JOINT RightHandMiddle1
								{
									OFFSET -11.335861 0.000000 0.000000
									CHANNELS 3 Xrotation Yrotation Zrotation
									JOINT RightHandMiddle2
									{
										OFFSET -3.410492 0.000000 0.000000
										CHANNELS 3 Xrotation Yrotation Zrotation
										JOINT RightHandMiddle3
										{
											OFFSET -3.312172 0.000000 0.000000
											CHANNELS 3 Xrotation Yrotation Zrotation
											End Site
											{
												OFFSET 1.150200 3.080154 0.400270
											}
										}
									}
								}
								JOINT RightHandRing1
								{
									OFFSET -11.514786 -0.013176 -3.003090
									CHANNELS 3 Xrotation Yrotation Zrotation
									JOINT RightHandRing2
									{
										OFFSET -3.053307 0.000000 0.000000
										CHANNELS 3 Xrotation Yrotation Zrotation
										JOINT RightHandRing3
										{
											OFFSET -3.295807 0.000000 0.000000
											CHANNELS 3 Xrotation Yrotation Zrotation
											End Site
											{
												OFFSET 1.281006 3.013344 0.375733
											}
										}
									}
								}
								JOINT RightHandPinky1
								{
									OFFSET -10.518692 -0.960396 -5.730441
									CHANNELS 3 Xrotation Yrotation Zrotation
									JOINT RightHandPinky2
									{
										OFFSET -2.861649 0.000000 0.000000
										CHANNELS 3 Xrotation Yrotation Zrotation
										JOINT RightHandPinky3
										{
											OFFSET -2.863380 0.000000 0.000000
											CHANNELS 3 Xrotation Yrotation Zrotation
											End Site
											{
												OFFSET 0.843597 2.711159 0.369971
											}
										}
									}
								}
							}
							JOINT RSleeve
							{
								OFFSET -6.676277 -0.344902 -1.011730
								CHANNELS 3 Xrotation Yrotation Zrotation
								End Site
								{
									OFFSET 0.000000 14.885353 0.000000
								}
							}
						}
					}
				}
				JOINT Backpack
				{
					OFFSET 0.000000 -2.471497 36.677502
					CHANNELS 3 Xrotation Yrotation Zrotation
					End Site
					{
						OFFSET 0.000000 20.427315 0.000000
					}
				}
				JOINT Hood
				{
					OFFSET 0.000000 18.754097 -10.431000
					CHANNELS 3 Xrotation Yrotation Zrotation
					JOINT Hood1
					{
						OFFSET 0.000000 -5.011002 -7.685901
						CHANNELS 3 Xrotation Yrotation Zrotation
						End Site
						{
							OFFSET 0.000000 9.175140 0.000000
						}
					}
				}
				JOINT LHoodieString
				{
					OFFSET 5.250500 16.397697 3.089900
					CHANNELS 3 Xrotation Yrotation Zrotation
					JOINT LHoodieString1
					{
						OFFSET 0.257700 -6.364304 3.694600
						CHANNELS 3 Xrotation Yrotation Zrotation
						JOINT LHoodieString2
						{
							OFFSET 0.000000 -9.643799 2.679100
							CHANNELS 3 Xrotation Yrotation Zrotation
							End Site
							{
								OFFSET 0.000000 10.009018 0.000000
							}
						}
					}
				}
				JOINT RHoodieString
				{
					OFFSET -5.250500 16.397697 3.089900
					CHANNELS 3 Xrotation Yrotation Zrotation
					JOINT RHoodieString1
					{
						OFFSET -0.257700 -6.364304 3.694600
						CHANNELS 3 Xrotation Yrotation Zrotation
						JOINT RHoodieString2
						{
							OFFSET 0.000000 -9.643799 2.679100
							CHANNELS 3 Xrotation Yrotation Zrotation
							End Site
							{
								OFFSET 0.000000 10.009018 0.000000
							}
						}
					}
				}
			}
			JOINT LBackpack_Strap
			{
				OFFSET 15.223200 -7.719803 -6.610900
				CHANNELS 3 Xrotation Yrotation Zrotation
				End Site
				{
					OFFSET 0.000000 16.040596 0.000000
				}
			}
			JOINT RBackpack_Strap
			{
				OFFSET -15.223000 -7.719803 -6.610900
				CHANNELS 3 Xrotation Yrotation Zrotation
				End Site
				{
					OFFSET 0.000000 16.040596 0.000000
				}
			}
		}
	}
	JOINT BoyFacialAnim_Joint
	{
		OFFSET 1.000000 -82.208099 -1.550900
		CHANNELS 3 Xrotation Yrotation Zrotation
		End Site
		{
			OFFSET 0.000000 30.012791 0.000000
		}
	}
}
MOTION
Frames: 5
Frame Time: 0.033333
-0.350025 77.968216 0.365571 -6.588202 -43.376735 -3.261829 -0.000000 0.000001 0.000000 -17.098108 19.756530 29.343469 27.115286 3.552764 -4.959667 -3.634974 1.921755 -16.299268 -0.000000 -0.000001 0.000000 -0.000000 -0.000001 0.000000 0.000000 -0.000001 0.000003 -8.615037 -11.527960 -19.517585 27.085303 8.315192 -8.691725 -15.156840 -3.404439 21.094711 0.000000 -0.000003 0.000000 0.000000 -0.000003 0.000000 -0.000000 -0.000001 -0.000001 -0.051728 -6.094613 1.425535 -0.447224 -4.624438 1.308667 -0.404206 -4.598462 1.392877 1.158124 7.991073 -0.175097 13.145364 40.267858 -16.408090 -0.000000 0.000000 -0.000000 -0.000000 0.000000 -0.000000 -0.000000 0.000000 -0.000000 0.640493 -4.087138 -10.582141 -43.013048 -45.655877 -46.404442 0.000129 -98.506914 0.000087 -67.587946 -11.419890 7.758237 -19.860880 1.138330 14.668255 3.939047 7.948706 0.746806 0.000001 -0.000003 -0.000002 1.788183 4.633422 -42.188163 3.499010 5.996117 -60.501064 -0.000002 -0.000001 -0.000002 1.786875 4.631989 -42.172088 3.500702 5.997078 -60.517211 0.000003 0.000003 0.000001 1.788175 4.633408 -42.188173 3.499014 5.996118 -60.501064 0.000001 0.000000 -0.000004 4.520539 7.643164 -41.970058 3.517094 1.918208 -60.762818 -0.000002 0.000000 -0.000000 0.000001 0.000003 -0.000002 0.963803 -2.256697 11.709382 24.037379 59.005977 38.868366 -1.023974 93.160174 1.020338 -7.533985 48.415475 -24.321826 48.939702 17.699337 11.222372 45.763995 -30.271368 20.151765 0.000001 -0.000000 -0.000002 4.207346 -6.387240 66.715894 7.059432 -6.947360 90.919155 0.000001 -0.000001 0.000002 4.207341 -6.387239 66.715908 7.059429 -6.947341 90.919155 0.000004 0.000001 -0.000005 4.207335 -6.387215 66.715894 7.059406 -6.947364 90.919155 -0.000002 -0.000000 0.000002 4.207343 -6.387205 66.715888 7.059426 -6.947364 90.919141 -0.000001 -0.000000 0.000002 0.000001 -0.000000 -0.000000 -0.000000 -0.000003 -0.000001 -0.000000 -0.000003 -0.000001 -0.000000 -0.000003 -0.000001 -0.000000 -0.000003 -0.000001 -0.000000 -0.000003 -0.000001 -0.000000 0.000000 -0.000001 -0.000000 -0.000003 -0.000001 -0.000000 -0.000003 -0.000001 -0.000000 0.000000 -0.000001 0.000000 -0.000003 -0.000000 0.000000 -0.000003 -0.000000 -0.000000 0.000001 0.000000 
-0.050336 78.151749 0.545542 -5.531848 -43.283414 -2.581588 -0.000000 0.000001 -0.000000 -17.385104 18.963716 28.461986 26.987017 4.675723 -4.686939 -3.543114 1.948365 -16.270243 0.000000 -0.000001 0.000000 0.000000 -0.000001 0.000000 -0.000000 -0.000001 0.000000 -8.674636 -11.570041 -19.548017 25.393723 8.107896 -8.583129 -13.965514 -3.324598 21.492488 0.000000 0.000001 -0.000000 0.000000 0.000001 -0.000000 0.000000 0.000004 0.000002 -0.290396 -6.306222 1.268101 -0.631697 -4.804850 1.243778 -0.590048 -4.780978 1.331039 1.318690 7.902724 -0.148871 14.260569 39.830730 -17.414414 0.000000 -0.000001 -0.000000 0.000000 -0.000001 -0.000000 0.000000 -0.000001 -0.000000 0.639301 -3.919889 -10.173533 -44.979681 -46.376906 -47.726896 -0.000243 -97.704108 -0.000229 -68.104158 -11.155986 7.260518 -19.860882 1.138326 14.668251 3.939047 7.948704 0.746804 -0.000002 0.000004 0.000002 1.788183 4.633416 -42.188163 3.499012 5.996113 -60.501064 -0.000001 0.000000 0.000002 1.786873 4.631986 -42.172091 3.500695 5.997076 -60.517218 0.000002 0.000001 0.000000 1.788174 4.633405 -42.188169 3.499010 5.996121 -60.501058 -0.000001 0.000000 -0.000000 4.520539 7.643161 -41.970068 3.517088 1.918207 -60.762825 -0.000002 0.000001 -0.000004 -0.000000 -0.000000 0.000006 0.984553 -2.146762 11.708601 22.957080 58.795033 39.865779 -0.068507 93.162790 0.068255 -7.779959 47.902050 -23.828778 48.939706 17.699341 11.222374 45.763992 -30.271368 20.151771 -0.000001 0.000002 0.000002 4.207345 -6.387240 66.715894 7.059431 -6.947359 90.919155 0.000001 0.000002 0.000000 4.207339 -6.387234 66.715901 7.059427 -6.947344 90.919155 -0.000000 0.000000 -0.000000 4.207337 -6.387211 66.715894 7.059411 -6.947360 90.919155 -0.000003 0.000001 0.000000 4.207344 -6.387207 66.715901 7.059426 -6.947366 90.919141 0.000001 0.000003 -0.000001 -0.000001 0.000000 -0.000000 -0.000000 -0.000000 0.000000 -0.000000 -0.000000 0.000000 -0.000000 -0.000000 0.000000 -0.000000 -0.000000 0.000000 -0.000000 -0.000000 0.000000 -0.000000 -0.000004 0.000000 -0.000000 -0.000000 0.000000 -0.000000 -0.000000 0.000000 -0.000000 -0.000004 0.000000 0.000000 -0.000002 -0.000001 0.000000 -0.000002 -0.000001 -0.000000 0.000001 -0.000000 
0.203841 78.306908 0.719520 -4.546706 -43.271861 -1.968204 -0.000000 -0.000001 -0.000000 -17.690601 18.258050 27.722333 26.923684 5.734379 -4.430885 -3.465191 1.983757 -16.283714 0.000000 -0.000001 0.000000 0.000000 -0.000001 0.000000 -0.000000 0.000001 -0.000002 -8.775616 -11.553095 -19.539090 23.900276 7.922845 -8.508106 -12.840010 -3.244939 21.851206 0.000000 0.000003 0.000000 0.000000 0.000003 0.000000 -0.000001 -0.000000 0.000001 -0.492683 -6.510391 1.204217 -0.792971 -4.974940 1.225493 -0.752584 -4.952040 1.316527 1.477648 7.840882 -0.155846 15.328886 39.520526 -18.629875 -0.000000 -0.000001 0.000000 -0.000000 -0.000001 0.000000 -0.000000 -0.000001 0.000000 0.638260 -3.698138 -9.662220 -46.861904 -46.877391 -49.050180 -0.000124 -97.071448 -0.000104 -68.610220 -11.021102 6.829036 -19.860886 1.138324 14.668255 3.939049 7.948708 0.746805 -0.000001 0.000000 -0.000000 1.788184 4.633415 -42.188163 3.499014 5.996113 -60.501058 0.000002 -0.000001 -0.000002 1.786873 4.631986 -42.172084 3.500699 5.997075 -60.517211 0.000005 0.000001 0.000000 1.788174 4.633409 -42.188173 3.499014 5.996121 -60.501058 0.000001 0.000004 -0.000003 4.520539 7.643162 -41.970064 3.517087 1.918207 -60.762818 -0.000000 -0.000002 0.000003 0.000002 -0.000001 -0.000002 1.013443 -1.993970 11.707431 22.112970 58.475674 40.645510 0.079595 93.250046 -0.079309 -7.980993 47.422154 -23.281779 48.939712 17.699336 11.222376 45.763992 -30.271368 20.151768 0.000001 -0.000000 0.000001 4.207345 -6.387239 66.715888 7.059430 -6.947361 90.919162 0.000001 -0.000002 0.000005 4.207338 -6.387236 66.715908 7.059427 -6.947346 90.919155 0.000002 -0.000003 -0.000003 4.207334 -6.387213 66.715894 7.059408 -6.947359 90.919162 -0.000000 0.000002 -0.000003 4.207346 -6.387212 66.715894 7.059427 -6.947364 90.919141 -0.000002 0.000003 -0.000003 -0.000000 -0.000000 -0.000000 -0.000000 -0.000001 -0.000000 -0.000000 -0.000001 -0.000000 -0.000000 -0.000001 -0.000000 -0.000000 -0.000001 -0.000000 -0.000000 -0.000001 -0.000000 -0.000000 -0.000002 0.000000 -0.000000 -0.000001 -0.000000 -0.000000 -0.000001 -0.000000 -0.000000 -0.000002 0.000000 -0.000000 -0.000002 0.000000 -0.000000 -0.000002 0.000000 -0.000000 -0.000001 -0.000000 
0.423926 78.436646 0.900620 -3.642687 -43.305469 -1.455851 -0.000000 -0.000000 -0.000000 -18.049992 17.637039 27.148274 26.974365 6.671383 -4.185597 -3.434486 2.033223 -16.320013 -0.000000 0.000001 -0.000000 -0.000000 0.000001 -0.000000 0.000000 -0.000000 -0.000000 -8.864252 -11.495996 -19.469937 22.552549 7.761446 -8.456199 -11.746272 -3.183826 22.181640 0.000000 0.000001 -0.000000 0.000000 0.000001 -0.000000 0.000002 0.000002 -0.000000 -0.655312 -6.707269 1.237203 -0.928456 -5.134244 1.253558 -0.889254 -5.111350 1.349131 1.626270 7.801301 -0.194235 16.294845 39.316789 -20.006404 0.000000 0.000000 0.000000 0.000000 0.000000 0.000000 0.000000 0.000000 0.000000 0.635061 -3.418032 -9.038710 -48.623560 -47.157924 -50.359029 0.001831 -96.617261 0.001826 -69.104056 -11.018448 6.457797 -19.860880 1.138334 14.668255 3.939048 7.948709 0.746807 0.000002 0.000001 -0.000001 1.788184 4.633420 -42.188163 3.499012 5.996115 -60.501064 -0.000003 0.000000 0.000002 1.786876 4.631988 -42.172088 3.500703 5.997073 -60.517204 0.000001 0.000001 0.000002 1.788175 4.633411 -42.188176 3.499012 5.996121 -60.501058 -0.000002 0.000002 -0.000000 4.520539 7.643163 -41.970064 3.517085 1.918208 -60.762818 -0.000002 -0.000001 0.000003 -0.000000 -0.000006 0.000001 1.051170 -1.794746 11.705743 21.578784 58.054101 41.161391 0.001801 93.429249 -0.001734 -8.112322 46.911170 -22.730040 48.939706 17.699334 11.222379 45.763992 -30.271368 20.151770 0.000001 -0.000000 0.000007 4.207344 -6.387243 66.715894 7.059434 -6.947358 90.919162 0.000002 0.000005 0.000001 4.207340 -6.387239 66.715901 7.059429 -6.947344 90.919155 0.000001 -0.000000 -0.000002 4.207334 -6.387215 66.715894 7.059414 -6.947362 90.919155 -0.000000 0.000002 -0.000003 4.207343 -6.387207 66.715894 7.059427 -6.947368 90.919141 0.000002 0.000001 -0.000001 0.000002 0.000000 -0.000001 -0.000001 0.000001 0.000000 -0.000001 0.000001 0.000000 -0.000001 0.000001 0.000000 -0.000001 0.000001 0.000000 -0.000001 0.000001 -0.000000 -0.000000 0.000001 -0.000000 -0.000001 0.000001 0.000000 -0.000001 0.000001 -0.000000 -0.000000 0.000001 -0.000000 0.000000 0.000001 0.000000 0.000000 0.000001 0.000000 -0.000000 -0.000000 -0.000000 
0.475523 78.442947 1.062464 -2.981050 -43.723996 -1.165201 -0.000000 0.000001 -0.000000 -18.452704 17.365621 27.065863 27.441465 7.356359 -3.993955 -3.659544 2.162368 -16.549837 0.000000 0.000001 0.000000 0.000000 0.000001 -0.000000 -0.000000 0.000001 -0.000002 -9.166890 -11.186237 -19.277760 22.120857 7.766694 -8.522060 -11.354723 -3.212223 22.374750 0.000000 0.000001 0.000000 0.000000 0.000001 0.000000 0.000001 -0.000002 0.000002 -0.677782 -6.877515 1.649277 -0.971331 -5.255837 1.472631 -0.932851 -5.228991 1.576094 1.809444 7.870966 -0.374901 17.099030 39.658281 -22.304229 0.000000 0.000001 -0.000000 0.000000 0.000001 -0.000000 0.000000 0.000001 -0.000000 0.625708 -2.876585 -7.963567 -49.756507 -46.632720 -51.376359 0.000013 -96.896485 0.000028 -69.613807 -11.594308 6.298730 -19.860877 1.138326 14.668251 3.939047 7.948706 0.746808 -0.000002 -0.000002 -0.000001 1.788184 4.633419 -42.188163 3.499015 5.996113 -60.501064 -0.000002 -0.000002 -0.000000 1.786877 4.631988 -42.172091 3.500701 5.997076 -60.517218 0.000001 -0.000001 0.000002 1.788176 4.633408 -42.188173 3.499012 5.996121 -60.501064 -0.000001 -0.000001 -0.000001 4.520540 7.643163 -41.970064 3.517091 1.918209 -60.762818 -0.000001 0.000000 0.000003 -0.000001 0.000005 0.000000 1.121755 -1.417582 11.702053 22.003005 57.273616 40.778948 0.002888 93.907690 -0.002883 -8.063370 46.527095 -21.968047 48.939702 17.699342 11.222371 45.763995 -30.271371 20.151766 -0.000000 -0.000000 0.000001 4.207345 -6.387240 66.715894 7.059435 -6.947360 90.919155 -0.000000 0.000000 0.000002 4.207340 -6.387238 66.715901 7.059427 -6.947346 90.919162 -0.000000 0.000001 -0.000000 4.207335 -6.387212 66.715894 7.059412 -6.947357 90.919155 -0.000001 0.000001 0.000002 4.207341 -6.387205 66.715894 7.059426 -6.947366 90.919148 -0.000000 -0.000002 -0.000000 -0.000001 -0.000001 -0.000000 -0.000001 -0.000001 -0.000000 -0.000001 -0.000001 -0.000000 -0.000001 -0.000001 -0.000000 -0.000001 -0.000001 -0.000000 -0.000001 -0.000001 -0.000001 -0.000000 0.000001 -0.000000 -0.000001 -0.000001 -0.000000 -0.000001 -0.000001 -0.000001 -0.000000 0.000001 -0.000000 -0.000000 0.000000 -0.000000 -0.000000 0.000000 -0.000000 -0.000000 0.000001 -0.000000 
